<svg width="30" height="30" viewBox="0 0 30 30" fill="none" xmlns="http://www.w3.org/2000/svg">
<path d="M14.6 0.5H14.6003C16.7296 0.501231 18.8309 0.984697 20.7467 1.91412C22.6624 2.84354 24.3428 4.19478 25.6617 5.86644C26.9806 7.53809 27.9037 9.48675 28.3619 11.5662C28.82 13.6456 28.8013 15.8018 28.307 17.8729C27.8128 19.944 26.8559 21.8763 25.5081 23.5248C24.1603 25.1733 22.4567 26.4951 20.5251 27.391C18.5935 28.287 16.484 28.7338 14.355 28.698C12.226 28.6622 10.1328 28.1447 8.23238 27.1842L8.22122 27.1786L8.22129 27.1785L8.18582 27.1594L2.17763 28.6594C2.1775 28.6594 2.17737 28.6595 2.17724 28.6595L2.17681 28.6596L2.0557 28.1745C1.93645 28.2045 1.81211 28.2082 1.69126 28.1855C1.57042 28.1628 1.45594 28.1141 1.35574 28.0428C1.25554 27.9715 1.17199 27.8794 1.11087 27.7727C1.04974 27.666 1.0125 27.5473 1.0017 27.4248L14.6 0.5ZM14.6 0.5C10.8604 0.5 7.27406 1.98553 4.62979 4.62979C1.98553 7.27406 0.5 10.8604 0.5 14.6H0.499898L0.500102 14.6101L0.512002 15.1983L0.51223 15.2096L0.512967 15.2209L0.555467 15.8703L0.555317 15.8703L0.556418 15.8825C0.716295 17.6565 1.21289 19.3839 2.01962 20.9719L2.01958 20.972L2.0227 20.9779L2.04123 21.0132L14.6 0.5ZM4.65586 20.1779L4.65603 20.1782C4.78132 20.4018 4.84032 20.6566 4.82613 20.9126L4.82485 20.9357L4.82145 20.9586L4.79765 21.1184L4.79406 21.1425L4.78814 21.1661L3.70516 25.4937L8.03773 24.4135L8.03899 24.4131C8.20472 24.3723 8.3767 24.3631 8.54584 24.3862L8.56847 24.3893L8.59073 24.3944L8.74543 24.4301L8.79299 24.4411L8.83753 24.461L8.98543 24.5273L9.00573 24.5364L9.02514 24.5473C10.5452 25.3983 12.24 25.8895 13.9794 25.9834C15.7189 26.0773 17.4568 25.7713 19.0595 25.0889C20.6623 24.4066 22.0874 23.3659 23.2254 22.047C24.3633 20.7281 25.1839 19.1659 25.624 17.4804C26.0641 15.7949 26.1122 14.031 25.7644 12.324C25.4166 10.6171 24.6823 9.0126 23.6178 7.63369C22.5533 6.25477 21.1869 5.13816 19.6236 4.36958C18.0604 3.60102 16.3419 3.20092 14.5999 3.2L4.65586 20.1779ZM4.65586 20.1779C3.6825 18.4429 3.18009 16.4834 3.19856 14.4941C3.21704 12.5049 3.75575 10.555 4.76117 8.83845C5.76659 7.12186 7.20371 5.69826 8.92973 4.7091C10.6557 3.71997 12.6104 3.19971 14.5997 3.2L4.65586 20.1779ZM15.6698 18.4824L15.6473 18.4844L15.4943 18.498L15.4722 18.5H15.45H10.3509H10.35V18L15.6698 18.4824ZM15.6698 18.4824L15.6921 18.4784C16.024 18.4183 16.3215 18.2361 16.5258 17.9676C16.7301 17.6992 16.8265 17.364 16.796 17.028C16.7656 16.692 16.6104 16.3797 16.3611 16.1524C16.1119 15.9252 15.7868 15.7995 15.4497 15.8L15.6698 18.4824ZM19.4242 11.4219L19.7611 11.0524C20.0104 11.2797 20.1656 11.592 20.196 11.928C20.2265 12.264 20.1301 12.5992 19.9258 12.8676C19.7215 13.1361 19.424 13.3183 19.0921 13.3784L19.0698 13.3824L19.0473 13.3844L18.8943 13.398L18.8722 13.4H18.85L10.3509 13.4C10.3507 13.4 10.3505 13.4 10.3503 13.4H10.35V12.9L19.4242 11.4219ZM19.4242 11.4219L19.7611 11.0524C19.5119 10.8252 19.1868 10.6995 18.8497 10.7M19.4242 11.4219L18.8497 10.7M18.8497 10.7C18.8495 10.7 18.8493 10.7 18.8491 10.7L18.85 11.2V10.7H18.8497Z" fill="#676767" stroke="#676767"/>
</svg>
