<svg width="32" height="28" viewBox="0 0 32 28" fill="none" xmlns="http://www.w3.org/2000/svg">
<path d="M12.4137 12.401H2.85375C1.98675 12.401 1.28125 11.7777 1.28125 11.0105V2.57598C1.28125 1.81098 1.98675 1.18848 2.85375 1.18848H12.4137C13.2807 1.18848 13.9862 1.81098 13.9862 2.57598V11.0112C13.9862 11.7777 13.2807 12.401 12.4137 12.401ZM2.85375 1.85298C2.63658 1.85318 2.42838 1.92944 2.2749 2.065C2.12141 2.20057 2.0352 2.38436 2.0352 2.57598V11.0112C2.0352 11.411 2.4024 11.7365 2.85375 11.7365H12.4137C12.6312 11.7359 12.8395 11.6592 12.993 11.5232C13.1464 11.3872 13.2325 11.2031 13.2322 11.0112V2.57598C13.2322 2.38436 13.146 2.20057 12.9926 2.065C12.8391 1.92944 12.6309 1.85318 12.4137 1.85298H2.85375ZM29.1485 12.401H19.586C19.1687 12.4002 18.7688 12.2533 18.4742 11.9926C18.1795 11.7319 18.0141 11.3787 18.0143 11.0105V2.57598C18.0143 1.81098 18.719 1.18848 19.586 1.18848H29.1485C29.5651 1.18907 29.9644 1.33552 30.2588 1.59566C30.5531 1.8558 30.7185 2.20838 30.7185 2.57598V11.0112C30.7185 11.379 30.5532 11.7318 30.2589 11.9923C29.9647 12.2528 29.5653 12.3998 29.1485 12.401ZM19.586 1.85298C19.3688 1.85318 19.1606 1.92944 19.0071 2.065C18.8537 2.20057 18.7674 2.38436 18.7674 2.57598V11.0112C18.7674 11.411 19.1346 11.7365 19.586 11.7365H29.1485C29.5905 11.7365 29.9645 11.4042 29.9645 11.0112V2.57598C29.9647 2.48123 29.9438 2.38737 29.9029 2.29976C29.862 2.21214 29.802 2.1325 29.7262 2.06536C29.6504 1.99822 29.5604 1.94491 29.4613 1.90847C29.3622 1.87203 29.2559 1.85317 29.1485 1.85298H19.586ZM12.4137 26.8122H2.85375C1.98675 26.8122 1.28125 26.1897 1.28125 25.4247V16.9872C1.28125 16.2215 1.98675 15.599 2.85375 15.599H12.4137C13.2807 15.599 13.9862 16.2215 13.9862 16.9872V25.424C13.9862 26.189 13.2807 26.8122 12.4137 26.8122ZM2.85375 16.2642C2.63665 16.2646 2.42858 16.3409 2.27514 16.4765C2.12171 16.612 2.03542 16.7957 2.0352 16.9872V25.424C2.0352 25.823 2.4024 26.147 2.85375 26.147H12.4137C12.6309 26.1468 12.8391 26.0705 12.9926 25.935C13.146 25.7994 13.2322 25.6156 13.2322 25.424V16.9872C13.2322 16.7956 13.146 16.6118 12.9926 16.4763C12.8391 16.3407 12.6309 16.2644 12.4137 16.2642H2.85375ZM29.1485 26.8122H19.586C18.719 26.8122 18.0143 26.1897 18.0143 25.4247V16.9872C18.0143 16.2215 18.719 15.599 19.586 15.599H29.1485C30.0138 15.599 30.7185 16.2215 30.7185 16.9872V25.424C30.7182 25.7916 30.5529 26.1441 30.2586 26.4043C29.9643 26.6646 29.5651 26.8112 29.1485 26.8122ZM19.586 16.2642C19.3689 16.2646 19.1608 16.3409 19.0074 16.4765C18.854 16.612 18.7677 16.7957 18.7674 16.9872V25.424C18.7674 25.823 19.1346 26.147 19.586 26.147H29.1485C29.599 26.147 29.9645 25.823 29.9645 25.424V16.9872C29.9647 16.8925 29.9438 16.7986 29.9029 16.711C29.862 16.6234 29.802 16.5437 29.7262 16.4766C29.6504 16.4095 29.5604 16.3562 29.4613 16.3197C29.3622 16.2833 29.2559 16.2644 29.1485 16.2642H19.586Z" fill="#676767" fill-opacity="0.92"/>
<path d="M17.5144 11.0102C17.514 11.5324 17.7492 12.0188 18.1429 12.3671C18.5345 12.7136 19.0541 12.9 19.585 12.901H19.586L29.1485 12.901L29.1499 12.901C29.6804 12.8995 30.1992 12.713 30.5903 12.3667C30.9835 12.0187 31.2185 11.5329 31.2185 11.0112V2.57598C31.2185 2.0543 30.9833 1.56869 30.5899 1.22101C30.1985 0.875101 29.6795 0.689236 29.1492 0.688477H29.1485H19.586C18.5031 0.688477 17.5144 1.47819 17.5144 2.57598V11.0102ZM17.5144 11.0102L18.0144 11.0105M17.5144 11.0102V11.0105H18.0144M18.0144 11.0105V2.57598C18.0144 1.81098 18.719 1.18848 19.586 1.18848H29.1485V12.401H19.586C19.1687 12.4002 18.7688 12.2533 18.4742 11.9926C18.1795 11.7319 18.0141 11.3787 18.0144 11.0105ZM12.7322 11.0112L12.7322 11.0118C12.7323 11.0497 12.7159 11.1007 12.6614 11.149C12.605 11.199 12.5165 11.2361 12.4129 11.2365H2.85375C2.74788 11.2365 2.66182 11.1983 2.60683 11.1495C2.55266 11.1015 2.5352 11.0515 2.5352 11.0112V2.57598C2.5352 2.53849 2.55153 2.48778 2.6059 2.43975C2.66225 2.38998 2.75065 2.35312 2.854 2.35298H12.4134C12.5168 2.35312 12.6052 2.38998 12.6615 2.43975C12.7159 2.48778 12.7322 2.53849 12.7322 2.57598L12.7322 11.0112ZM29.4645 2.5748V2.57598V11.0112C29.4645 11.0437 29.449 11.0951 29.3901 11.1475C29.3313 11.1998 29.2449 11.2365 29.1485 11.2365H19.586C19.4801 11.2365 19.3941 11.1983 19.3391 11.1495C19.2849 11.1015 19.2675 11.0515 19.2675 11.0112V2.57598C19.2675 2.53849 19.2838 2.48778 19.3382 2.43975C19.3945 2.38998 19.4829 2.35312 19.5863 2.35298H29.148C29.1976 2.35311 29.2456 2.36191 29.2888 2.37776C29.332 2.39365 29.3675 2.41555 29.3946 2.43959C29.4216 2.46353 29.4392 2.48851 29.4498 2.5112C29.4603 2.53365 29.4646 2.55505 29.4645 2.5748ZM29.1485 27.3122L29.1497 27.3122C29.6799 27.311 30.1986 27.1248 30.5898 26.7789C30.983 26.4312 31.2181 25.9458 31.2185 25.4243V25.424V16.9872C31.2185 15.8892 30.2302 15.099 29.1485 15.099H19.586C18.5029 15.099 17.5144 15.8889 17.5144 16.9872V25.4247C17.5144 26.5225 18.5031 27.3122 19.586 27.3122L29.1485 27.3122ZM29.4645 16.986V16.9872V25.424C29.4645 25.4642 29.4472 25.5136 29.3938 25.5609C29.3396 25.609 29.2543 25.647 29.1485 25.647H19.586C19.4795 25.647 19.3932 25.6087 19.3384 25.5603C19.2845 25.5127 19.2675 25.4634 19.2675 25.424L19.2674 16.9878C19.2674 16.9876 19.2675 16.9874 19.2675 16.9873C19.2677 16.9497 19.2842 16.8991 19.3384 16.8512C19.3948 16.8014 19.4832 16.7645 19.5865 16.7642C19.5866 16.7642 19.5868 16.7642 19.5869 16.7642H29.1476C29.1477 16.7642 29.1479 16.7642 29.148 16.7642C29.1977 16.7644 29.2457 16.7732 29.2888 16.789C29.332 16.8049 29.3675 16.8268 29.3946 16.8508C29.4216 16.8748 29.4392 16.8998 29.4498 16.9225C29.4603 16.9449 29.4646 16.9663 29.4645 16.986ZM2.85375 12.901H12.4137C13.4969 12.901 14.4862 12.1102 14.4862 11.0112V2.57598C14.4862 1.47786 13.4962 0.688477 12.4137 0.688477H2.85375C1.77125 0.688477 0.78125 1.47786 0.78125 2.57598V11.0105C0.78125 12.11 1.77033 12.901 2.85375 12.901ZM2.85375 27.3122H12.4137C13.4966 27.3122 14.4862 26.5218 14.4862 25.424V16.9872C14.4862 15.8885 13.4964 15.099 12.4137 15.099H2.85375C1.77107 15.099 0.78125 15.8885 0.78125 16.9872V25.4247C0.78125 26.5228 1.77125 27.3122 2.85375 27.3122ZM2.60615 16.8512C2.66254 16.8014 2.75092 16.7645 2.85425 16.7642C2.85439 16.7642 2.85453 16.7642 2.85466 16.7642L12.4132 16.7642C12.5167 16.7643 12.6052 16.8012 12.6615 16.851C12.7159 16.899 12.7322 16.9497 12.7322 16.9872V25.424C12.7322 25.4615 12.7159 25.5122 12.6615 25.5602C12.6052 25.61 12.5167 25.6469 12.4132 25.647H2.85375C2.74723 25.647 2.66099 25.6087 2.60616 25.5603C2.55224 25.5127 2.5352 25.4634 2.5352 25.424V16.9876C2.5353 16.95 2.55178 16.8992 2.60615 16.8512Z" stroke="#676767" stroke-opacity="0.92"/>
</svg>
