<svg width="34" height="29" viewBox="0 0 34 29" fill="none" xmlns="http://www.w3.org/2000/svg">
<path d="M17.6936 0.238107C17.4925 0.0838002 17.2448 0 16.9898 0C16.7348 0 16.4871 0.0838002 16.286 0.238107L0 12.7362L1.40873 14.4897L3.4 12.9616V26.7692C3.4012 27.3605 3.64039 27.9272 4.06521 28.3453C4.49004 28.7634 5.06588 28.9988 5.66667 29H28.3333C28.9341 28.9988 29.51 28.7634 29.9348 28.3453C30.3596 27.9272 30.5988 27.3605 30.6 26.7692V12.9716L32.5913 14.4997L34 12.7463L17.6936 0.238107ZM19.2667 26.7692H14.7333V17.8459H19.2667V26.7692ZM21.5333 26.7692V17.8459C21.5327 17.2545 21.2937 16.6874 20.8688 16.2692C20.4438 15.8509 19.8676 15.6157 19.2667 15.6151H14.7333C14.1324 15.6157 13.5562 15.8509 13.1312 16.2692C12.7063 16.6874 12.4673 17.2545 12.4667 17.8459V26.7692H5.66667V11.2226L17 2.53361L28.3333 11.2338V26.7692H21.5333Z" fill="#676767" fill-opacity="0.96"/>
</svg>
