<svg width="36" height="30" viewBox="0 0 36 30" fill="none" xmlns="http://www.w3.org/2000/svg">
<path d="M3.16131 27.2926L4.07267 26.1534L3.16131 27.2926C4.1586 28.0905 5.45259 28.5 6.75 28.5H29.25C30.5474 28.5 31.8414 28.0905 32.8387 27.2926C33.8447 26.4878 34.5 25.3153 34.5 24C34.5 21.8891 33.4496 19.9534 31.7403 18.5861C30.0398 17.2256 27.792 16.5 25.5 16.5H10.5C8.20803 16.5 5.96021 17.2256 4.25966 18.5861C2.55041 19.9534 1.5 21.8891 1.5 24C1.5 25.3153 2.15533 26.4878 3.16131 27.2926Z" stroke="#676767" stroke-width="3" stroke-linejoin="round"/>
<path d="M18 13.5C21.6054 13.5 25.125 11.1088 25.125 7.5C25.125 3.89124 21.6054 1.5 18 1.5C14.3946 1.5 10.875 3.89124 10.875 7.5C10.875 11.1088 14.3946 13.5 18 13.5Z" stroke="#676767" stroke-width="3"/>
</svg>
