<svg width="29" height="25" viewBox="0 0 29 25" fill="none" xmlns="http://www.w3.org/2000/svg">
<path fill-rule="evenodd" clip-rule="evenodd" d="M28.4467 2.47055C28.5085 2.09558 28.4686 1.71091 28.3312 1.3566C28.1938 1.00229 27.9638 0.69131 27.6654 0.456069C27.3669 0.220828 27.0108 0.0699303 26.6342 0.0190973C26.2576 -0.0317357 25.8743 0.0193561 25.5241 0.16705L1.29911 10.3671C-0.389558 11.0782 -0.475975 13.5205 1.29911 14.2572C3.05679 14.9903 4.8401 15.6603 6.64561 16.266C8.30027 16.8129 10.1051 17.3186 11.5515 17.4617C11.9468 17.9349 12.444 18.391 12.9512 18.8075C13.7261 19.445 14.6583 20.101 15.6216 20.73C17.5511 21.9908 19.6917 23.1964 21.1339 23.9812C22.8579 24.9162 24.922 23.8396 25.2309 21.9596L28.4467 2.47055ZM4.01486 12.298L25.4405 3.27663L22.44 21.4666C21.0248 20.6974 18.9862 19.5456 17.17 18.3585C16.333 17.821 15.5248 17.2399 14.7489 16.6174C14.5415 16.448 14.3403 16.2713 14.1454 16.0875L19.7569 10.4776C20.0227 10.2119 20.1721 9.85156 20.1722 9.47576C20.1724 9.09996 20.0232 8.7395 19.7576 8.47368C19.4919 8.20785 19.1316 8.05844 18.7558 8.05831C18.38 8.05817 18.0195 8.20733 17.7537 8.47297L11.6096 14.6171C10.5698 14.4839 9.12194 14.0985 7.53244 13.5744C6.34909 13.1802 5.17661 12.7541 4.01627 12.2965L4.01486 12.298Z" fill="#676767"/>
</svg>
