<svg width="35" height="32" viewBox="0 0 35 32" fill="none" xmlns="http://www.w3.org/2000/svg">
<path d="M17.5 19.75C19.9162 19.75 21.875 18.0711 21.875 16C21.875 13.9289 19.9162 12.25 17.5 12.25C15.0838 12.25 13.125 13.9289 13.125 16C13.125 18.0711 15.0838 19.75 17.5 19.75Z" stroke="#CFCFCF" stroke-width="3.125"/>
<path opacity="0.5" d="M11.9387 4.3661L11.9396 4.36426C12.1853 3.85538 12.5374 3.40993 12.9622 3.04582C13.3866 2.68211 13.8779 2.40396 14.4032 2.21753L11.9387 4.3661ZM11.9387 4.3661C11.6646 4.93548 11.6001 5.51884 11.577 6.05523L11.5764 6.06814M11.9387 4.3661L11.5764 6.06814M11.5764 6.06814L11.5761 6.08105M11.5764 6.06814L11.5761 6.08105M11.5761 6.08105C11.5753 6.11015 11.5664 6.1562 11.5256 6.21604C11.485 6.27568 11.4112 6.34969 11.2925 6.41323C11.1631 6.47232 11.0064 6.50865 10.838 6.50939C10.6623 6.51016 10.4984 6.47206 10.3643 6.40915L10.3556 6.40505M11.5761 6.08105L10.3556 6.40505M10.3556 6.40505L10.3468 6.40105M10.3556 6.40505L10.3468 6.40105M10.3468 6.40105C9.81074 6.15765 9.27853 5.95421 8.68162 5.88627L8.67994 5.88608M10.3468 6.40105L8.67994 5.88608M8.67994 5.88608C7.57049 5.76103 6.42602 6.0135 5.49113 6.62815L5.49112 6.62814M8.67994 5.88608L5.49112 6.62814M5.49112 6.62814L5.4858 6.63167M5.49112 6.62814L5.4858 6.63167M5.4858 6.63167C4.75829 7.11424 4.24805 7.87438 3.69359 8.70038C3.65428 8.75895 3.61474 8.81784 3.57489 8.87699C3.56162 8.8967 3.5484 8.91632 3.53523 8.93586C3.22508 9.39614 2.94608 9.8102 2.74008 10.1701C2.52018 10.5544 2.31067 10.9972 2.23124 11.5185C2.14454 12.0818 2.18882 12.6532 2.3583 13.1958C2.52746 13.7373 2.81454 14.2289 3.18879 14.6471L3.19125 14.6498M5.4858 6.63167L3.19125 14.6498M3.19125 14.6498C3.5964 15.1003 4.09976 15.4057 4.59712 15.674L4.59837 15.6746M3.19125 14.6498L4.59837 15.6746M4.59837 15.6746C4.74327 15.7526 4.82747 15.8397 4.86934 15.9017C4.90853 15.9597 4.90951 15.9914 4.90951 16C4.90951 16.0087 4.9085 16.0403 4.86956 16.0979C4.82796 16.1594 4.74429 16.2458 4.60031 16.3231L4.6003 16.3231M4.59837 15.6746L4.6003 16.3231M4.6003 16.3231L4.59428 16.3263M4.6003 16.3231L4.59428 16.3263M4.59428 16.3263C4.1032 16.5925 3.5945 16.8992 3.18879 17.3529C2.81454 17.7711 2.52746 18.2627 2.3583 18.8042C2.18882 19.3468 2.14454 19.9182 2.23124 20.4815L2.23125 20.4815M4.59428 16.3263L2.23125 20.4815M2.23125 20.4815C2.3112 21.0008 2.51979 21.4428 2.7396 21.8279C2.94712 22.1914 3.22841 22.6098 3.5421 23.0764L3.57257 23.1217L3.5743 23.1243M2.23125 20.4815L3.5743 23.1243M3.5743 23.1243C3.61674 23.1871 3.65882 23.2497 3.70066 23.312C4.25151 24.1313 4.76096 24.889 5.4877 25.3696L5.49101 25.3718M3.5743 23.1243L5.49101 25.3718M5.49101 25.3718C5.95709 25.6783 6.47768 25.8959 7.02099 26.0206C7.56434 26.1453 8.12789 26.1765 8.68198 26.1139L8.68379 26.1136M5.49101 25.3718L8.68379 26.1136M8.68379 26.1136C9.27904 26.0456 9.81109 25.8422 10.3468 25.5989L10.3556 25.5949M8.68379 26.1136L10.3556 25.5949M10.3556 25.5949L10.3643 25.5908M10.3556 25.5949L10.3643 25.5908M10.3643 25.5908C10.4984 25.5279 10.6623 25.4898 10.838 25.4906C11.0096 25.4914 11.169 25.529 11.2998 25.5901C11.5223 25.704 11.5732 25.8549 11.5769 25.9428L11.577 25.9446M10.3643 25.5908L11.577 25.9446M11.577 25.9446C11.5998 26.4754 11.6615 27.0621 11.9396 27.6357C12.1853 28.1446 12.5374 28.5901 12.9622 28.9542C13.3866 29.3179 13.8779 29.596 14.4032 29.7825L11.577 25.9446ZM23.6991 25.5906C23.4789 25.7026 23.4267 25.8533 23.4229 25.9428L23.4229 25.9446C23.3997 26.4829 23.3351 27.0648 23.0612 27.6339L23.0603 27.6357C22.8145 28.1446 22.4624 28.5901 22.0376 28.9542C21.6133 29.3179 21.122 29.596 20.5966 29.7825C20.5965 29.7825 20.5964 29.7825 20.5964 29.7826L20.0739 28.31C19.5387 28.5 18.8591 28.5 17.4999 28.5L23.6991 25.5906ZM23.6991 25.5906C23.8301 25.5292 23.9898 25.4914 24.1618 25.4906C24.3375 25.4898 24.5014 25.5279 24.6355 25.5908L24.6443 25.5949L24.6531 25.5989C25.1888 25.8422 25.7208 26.0456 26.316 26.1136L26.3179 26.1139C26.872 26.1765 27.4355 26.1453 27.9789 26.0206C28.5222 25.8959 29.0428 25.6783 29.5088 25.3718L29.5097 25.3712C30.2387 24.8911 30.7492 24.1301 31.298 23.312C31.3401 23.2493 31.3823 23.1863 31.425 23.123L31.4647 23.064C31.7748 22.6038 32.0538 22.1898 32.2598 21.8299C32.4797 21.4456 32.6892 21.0028 32.7686 20.4815C32.8553 19.9182 32.811 19.3468 32.6415 18.8042C32.4724 18.2627 32.1853 17.7711 31.8111 17.3529L31.8086 17.3502C31.4034 16.8997 30.9001 16.5943 30.4027 16.326L30.3929 16.3207L30.3829 16.3155C30.2562 16.2495 30.1794 16.1716 30.1383 16.11C30.1047 16.0596 30.0937 16.0192 30.0909 15.9904C30.0928 15.9755 30.1003 15.9465 30.1303 15.9021C30.1719 15.8406 30.2556 15.7542 30.3995 15.6769L30.3995 15.6769L30.4056 15.6737C30.8967 15.4075 31.4054 15.1008 31.8111 14.6471L23.6991 25.5906ZM27.6294 7.50233L27.9789 5.97942C28.5222 6.10411 29.0428 6.32174 29.5088 6.62823L29.5121 6.6304C30.2389 7.11095 30.7483 7.86869 31.2992 8.688C31.341 8.75025 31.3831 8.81284 31.4255 8.8757L31.4273 8.87828L31.4578 8.92363C31.7715 9.3902 32.0527 9.80857 32.2603 10.1721C32.4801 10.5572 32.6886 10.9992 32.7686 11.5185L32.7686 11.5185C32.8553 12.0818 32.811 12.6532 32.6415 13.1957C32.4725 13.7368 32.1858 14.228 31.8121 14.6459L27.6294 7.50233ZM27.6294 7.50233L27.9789 5.97942C27.4355 5.85473 26.872 5.82348 26.3179 5.88615L26.316 5.88635C25.721 5.95436 25.1891 6.15771 24.6532 6.40033L24.6438 6.40457L24.6345 6.40893C24.5005 6.47177 24.3367 6.50981 24.1611 6.50904C23.9929 6.50831 23.8364 6.47207 23.7071 6.41312M27.6294 7.50233L23.7071 6.41312M23.7071 6.41312C23.5886 6.3496 23.5149 6.27564 23.4743 6.21604C23.4335 6.15621 23.4245 6.11015 23.4237 6.08106L23.4234 6.06822L23.4229 6.0554C23.4 5.52464 23.3383 4.9379 23.0603 4.36426C22.8145 3.85539 22.4624 3.40993 22.0376 3.04581C21.6133 2.68212 21.122 2.40396 20.5966 2.21753L23.7071 6.41312ZM19.187 1.96391C19.6597 1.99151 20.1297 2.05183 20.5964 2.21744L19.187 1.96391ZM19.187 1.96391C18.7343 1.93747 18.1859 1.93749 17.5435 1.9375M19.187 1.96391L17.5435 1.9375M17.5435 1.9375L17.4999 1.9375M17.5435 1.9375L17.4999 1.9375M17.4999 1.9375L17.4564 1.9375M17.4999 1.9375L17.4564 1.9375M17.4564 1.9375C16.8139 1.93749 16.2655 1.93747 15.8129 1.96391M17.4564 1.9375L15.8129 1.96391M15.8129 1.96391C15.3402 1.99151 14.8701 2.05183 14.4035 2.21744L15.8129 1.96391ZM30.6468 18.395C30.431 18.155 30.1291 17.9537 29.661 17.7012L30.6468 18.395Z" stroke="#CFCFCF" stroke-width="3.125"/>
</svg>
